<svg xmlns="http://www.w3.org/2000/svg" viewBox="0 0 546.08 545.66"><title>algorand-circle</title><g id="Layer_2" data-name="Layer 2"><g id="Layer_1-2" data-name="Layer 1"><path d="M248,545c-65.3-6.73-121.57-33.38-167.53-79.34C33.84,419,7.18,362,1,296-4.13,240,10.1,179.94,40.22,130.82c21.54-35.14,55.39-69,90.53-90.53C179.91,10.13,239.93-4.1,296,1c66,6.14,123,32.8,169.62,79.43q70.62,70.62,79.47,171.11c2.18,24.66,1,30.33-7.63,36.25-3,2.08-4.65,2.42-9.78,2.06-6.92-.48-10.82-2.78-14-8.26-1.61-2.77-2.21-6.76-2.9-19.36-1.83-33.53-9-62.19-22.7-91.07-12-25.33-26.4-45.54-47-66.15C413.41,77.32,383.62,59,346.79,46.92c-25.38-8.31-46.8-11.71-73.68-11.71s-48.31,3.4-73.69,11.71c-36.83,12-66.62,30.4-94.33,58.12S59,162.54,47,199.37c-12.82,39.17-15.26,79-7.35,120.09C46,352.69,62,388.1,83.56,417c9.81,13.11,32.52,35.82,45.63,45.63,62.48,46.73,140.35,60.37,214.53,37.58,42.24-13,82.53-39.65,110.93-73.43C478.56,398.27,494.87,366,505,327.14c3.14-12.06,4.82-14.84,10.81-17.8,7.88-3.9,16.17-2,21.46,4.94,4,5.24,4.21,10.76.92,23.84-7.06,28.08-21.31,60.7-36.65,83.88C457.2,489,388.88,532,308.8,543.51c-14.19,2-47.59,2.85-60.8,1.48Zm19.35-57a22.58,22.58,0,0,1-6.05-3.27c-5.59-5.06-7-15.85-2.94-21.88,4.51-6.63,7-7.7,20.21-8.66,29.72-2.17,48.22-6.64,71.61-17.34,36.3-16.59,70.11-50.4,86.7-86.7,10.7-23.39,15.17-41.89,17.34-71.61,1-13.24,2-15.67,8.77-20.31,7.3-5,19.69-1.63,24.18,6.58,1.53,2.78,1.8,5.66,1.56,16.19-1.2,52.94-24.19,105.5-63.2,144.5-38.64,38.65-88,60.47-143.44,63.4-7.61.41-11.83.15-14.74-.9ZM66.12,288.15c-8.29-4.45-9.94-10.16-8.54-29.49,1.59-22,4.83-37.77,11.76-57.07,11.39-31.77,27.63-57.49,51.19-81,33.17-33.18,74.41-54,121.11-61.28,16-2.48,35.31-2.65,39.58-.34,8.2,4.43,11.58,16.86,6.58,24.16-4.64,6.76-7.07,7.81-20.31,8.77-29.72,2.17-48.22,6.64-71.61,17.34-36.3,16.59-70.11,50.4-86.7,86.7C98.51,219.29,94,237.79,91.87,267.51c-1,13.2-2,15.7-8.66,20.21-4.42,3-11.9,3.2-17.06.43Z"/><polygon points="192.69 376.86 222.88 324.59 253.06 272.5 283.07 220.23 288.04 211.94 290.25 220.23 299.45 254.65 289.14 272.5 258.95 324.59 228.95 376.86 265.03 376.86 295.21 324.59 310.86 297.53 318.22 324.59 332.21 376.86 364.61 376.86 350.62 324.59 336.63 272.5 332.95 259.06 355.4 220.23 322.64 220.23 321.54 216.36 310.12 173.66 308.65 168.14 277.18 168.14 276.44 169.24 246.99 220.23 216.8 272.5 186.8 324.59 156.62 376.86 192.69 376.86"/></g></g></svg>