<svg xmlns="http://www.w3.org/2000/svg" viewBox="0 0 546.04 545.64"><title>Asset 1</title><g id="Layer_2" data-name="Layer 2"><g id="Layer_1-2" data-name="Layer 1"><path d="M248,545c-65.3-6.73-121.57-33.38-167.53-79.34C33.8,419,7.14,362,1,296c-5.17-56.07,9.06-116.09,39.18-165.21,21.54-35.14,55.39-69,90.53-90.53C179.87,10.1,239.89-4.13,296,1,362,7.14,419,33.8,465.62,80.43q70.62,70.63,79.47,171.11c2.18,24.66,1,30.33-7.63,36.25-3,2.08-4.65,2.42-9.78,2.06-6.92-.48-10.82-2.78-14-8.26-1.61-2.77-2.21-6.76-2.9-19.36-1.83-33.53-9-62.19-22.7-91.07-12-25.33-26.4-45.54-47-66.15-27.71-27.72-57.5-46.07-94.33-58.12-25.38-8.31-46.8-11.71-73.68-11.71s-48.31,3.4-73.69,11.71c-36.83,12-66.62,30.4-94.33,58.12s-46.07,57.5-58.12,94.33c-12.82,39.17-15.26,79-7.35,120.09,6.39,33.23,22.35,68.64,43.94,97.51,9.81,13.11,32.52,35.82,45.63,45.63,62.48,46.73,140.35,60.37,214.53,37.58,42.24-13,82.53-39.65,110.93-73.43C478.52,398.24,494.83,366,505,327.11c3.14-12.06,4.82-14.84,10.81-17.8,7.88-3.9,16.17-2,21.46,4.94,4,5.24,4.21,10.76.92,23.84-7.06,28.08-21.31,60.7-36.65,83.88C457.16,489,388.84,532,308.76,543.48c-14.19,2-47.59,2.85-60.8,1.48ZM267.35,488a22.42,22.42,0,0,1-6.05-3.27c-5.59-5.06-7-15.85-2.94-21.88,4.51-6.63,7-7.7,20.21-8.66,29.72-2.17,48.22-6.64,71.61-17.34,36.3-16.59,70.11-50.4,86.7-86.7,10.7-23.39,15.17-41.89,17.34-71.61,1-13.24,2-15.67,8.77-20.31,7.3-5,19.69-1.63,24.18,6.58,1.53,2.78,1.8,5.66,1.56,16.19-1.2,52.94-24.19,105.5-63.2,144.5-38.64,38.65-88,60.47-143.44,63.4-7.61.41-11.83.15-14.74-.9ZM253.08,360.7a40.71,40.71,0,0,1-17.87-12.43c-3.49-4.34-54.58-91.76-63.06-107.91-5.39-10.25-6.46-16-4.78-25.58,2.34-13.44,9.79-23.26,21.92-28.88,5.46-2.53,7.74-3,15.47-2.91,6.54,0,10.59.65,14.54,2.22,11.51,4.58,15.19,9.1,34,41.68,5.84,10.12,11.12,18.4,11.74,18.4s3.72-4.44,6.9-9.86c18.64-31.8,23.12-39,26.07-41.76,14-13.17,33.63-14.86,49.31-4.25,12.18,8.25,18.54,24.8,15.38,40-1,4.66-7.33,16.47-29,53.84-35.73,61.57-37.33,64.18-42.18,68.88-9.38,9.08-26.34,12.85-38.42,8.53Zm-187-72.58c-8.29-4.45-9.94-10.16-8.54-29.49,1.59-22,4.83-37.77,11.76-57.07,11.39-31.77,27.63-57.49,51.19-81,33.17-33.18,74.41-54,121.11-61.28,16-2.48,35.31-2.65,39.58-.34,8.2,4.43,11.58,16.86,6.58,24.16-4.64,6.76-7.07,7.81-20.31,8.77-29.72,2.17-48.22,6.64-71.61,17.34-36.3,16.59-70.11,50.4-86.7,86.7C98.47,219.26,94,237.76,91.83,267.48c-1,13.2-2,15.7-8.66,20.21-4.42,3-11.9,3.2-17.06.43Z"/></g></g></svg>