<?xml version="1.0" encoding="UTF-8" standalone="no"?>
<svg
   width="84.70755"
   height="34.999901"
   viewBox="0 0 84.70755 34.999901"
   fill="none"
   version="1.1"
   id="svg24"
   sodipodi:docname="voi_network_logo.svg"
   xmlns:inkscape="http://www.inkscape.org/namespaces/inkscape"
   xmlns:sodipodi="http://sodipodi.sourceforge.net/DTD/sodipodi-0.dtd"
   xmlns="http://www.w3.org/2000/svg"
   xmlns:svg="http://www.w3.org/2000/svg">
  <sodipodi:namedview
     id="namedview26"
     pagecolor="#ffffff"
     bordercolor="#000000"
     borderopacity="0.25"
     inkscape:showpageshadow="2"
     inkscape:pageopacity="0.0"
     inkscape:pagecheckerboard="0"
     inkscape:deskcolor="#d1d1d1"
     showgrid="false" />
  <g
     id="Layer_1"
     clip-path="url(#clip0_14_293)"
     transform="translate(-2.322834e-6,-0.5)">
    <g
       id="Group">
      <path
         id="Vector"
         d="M 60.4387,4.20645 C 60.3846,4.11314 60.3273,4.02218 60.2693,3.93201 60.2599,3.91711 60.2497,3.90143 60.2403,3.88731 60.1822,3.79714 60.121,3.70853 60.0583,3.62071 60.0473,3.60581 60.0348,3.58856 60.0238,3.5721 59.9642,3.49133 59.903,3.41214 59.8403,3.33372 59.8238,3.31177 59.8073,3.28903 59.7893,3.26864 59.7336,3.20042 59.6771,3.13299 59.6183,3.06712 59.5916,3.03654 59.5657,3.00439 59.5391,2.97538 59.4905,2.92128 59.4403,2.86874 59.3893,2.81542 59.3501,2.77543 59.3132,2.73466 59.2724,2.69467 59.2332,2.65546 59.1916,2.61704 59.1516,2.57783 59.0991,2.52765 59.0473,2.47825 58.9932,2.42963 58.9626,2.40297 58.932,2.3771 58.9014,2.34887 58.8348,2.29163 58.7681,2.23517 58.6999,2.1795 58.6787,2.16146 58.6551,2.145 58.6348,2.12696 58.5555,2.06423 58.4763,2.00307 58.3963,1.94505 58.3798,1.9325 58.3634,1.92152 58.3477,1.91055 58.2606,1.84782 58.1712,1.78665 58.081,1.72706 58.0661,1.71765 58.052,1.70746 58.0363,1.69962 57.9445,1.64002 57.8528,1.58435 57.7618,1.53025 57.7524,1.52476 57.7438,1.51927 57.7351,1.51378 57.7242,1.50672 57.7116,1.50123 57.7006,1.49575 57.6159,1.44713 57.5296,1.40008 57.4442,1.35382 57.4112,1.33735 57.3791,1.32089 57.3453,1.30364 57.2747,1.26757 57.2034,1.23463 57.1328,1.20092 57.0826,1.17739 57.0332,1.15387 56.983,1.1327 56.9304,1.10917 56.8771,1.08722 56.8245,1.06605 56.7563,1.03704 56.6873,1.00881 56.6175,0.982931 56.5845,0.970385 56.5508,0.959407 56.5179,0.946862 56.4308,0.914713 56.343,0.884132 56.2559,0.856688 56.241,0.851199 56.2237,0.847278 56.2088,0.842574 56.1045,0.80964 56.001,0.77906 55.8967,0.750831 c -0.0016,0 -0.0032,0 -0.0039,-0.001568 C 55.5445,0.657521 55.1931,0.590871 54.841,0.549312 54.8324,0.547744 54.8245,0.547744 54.8159,0.546176 54.7092,0.535198 54.601,0.524221 54.4935,0.517164 54.4614,0.514027 54.43,0.514027 54.3978,0.511675 54.3147,0.507754 54.2316,0.503049 54.1476,0.500697 c -0.0627,-0.001568 -0.1247,0 -0.189,0 -0.051,0 -0.1043,-0.001568 -0.1569,0 C 53.7084,0.503833 53.6159,0.507754 53.5225,0.513243 53.5006,0.514811 53.4778,0.516379 53.4559,0.517164 52.8755,0.55637 52.2951,0.664578 51.7264,0.844926 51.7154,0.848062 51.7045,0.851983 51.6935,0.854335 51.6001,0.883348 51.51,0.915497 51.419,0.94843 51.3899,0.959407 51.3594,0.969601 51.3303,0.980579 51.2582,1.00802 51.186,1.03782 51.1139,1.06683 51.0652,1.088 51.015,1.10839 50.9656,1.12956 50.9131,1.15309 50.8613,1.17661 50.8088,1.2017 c -0.0691,0.03215 -0.1389,0.06508 -0.2071,0.09958 -0.0345,0.01647 -0.069,0.03451 -0.1027,0.05254 -0.0863,0.04469 -0.171,0.09174 -0.2542,0.13879 -0.0109,0.00706 -0.0235,0.01255 -0.0345,0.0196 -0.0094,0.00549 -0.018,0.01098 -0.0274,0.01647 -0.0918,0.0541 -0.1836,0.10978 -0.2738,0.1678 -0.0149,0.00941 -0.0305,0.0196 -0.047,0.03058 -0.0886,0.05803 -0.1765,0.11762 -0.262,0.18035 C 49.5837,1.91996 49.5656,1.9325 49.5491,1.94348 49.4684,2.0015 49.3907,2.06266 49.3131,2.12383 49.2895,2.14186 49.2676,2.1599 49.244,2.17793 49.1774,2.2336 49.1123,2.28928 49.0456,2.3473 49.015,2.37396 48.9829,2.4014 48.9523,2.42885 48.8981,2.4759 48.8464,2.52608 48.7954,2.5747 48.7538,2.61469 48.7123,2.65389 48.6715,2.69388 48.6307,2.73387 48.5954,2.77308 48.5578,2.81307 48.5068,2.8656 48.4566,2.91892 48.4064,2.97303 48.3797,3.00204 48.3554,3.03262 48.3287,3.0632 48.2707,3.12985 48.2119,3.19807 48.157,3.26551 48.1405,3.28668 48.124,3.30863 48.106,3.32902 48.0432,3.40822 47.9821,3.48898 47.9224,3.56896 47.9115,3.58543 47.9005,3.60111 47.8895,3.61758 47.826,3.70461 47.7648,3.794 47.706,3.88418 47.6966,3.89829 47.6864,3.91319 47.677,3.92887 47.6189,4.01905 47.5617,4.11079 47.5075,4.20331 47.5021,4.21272 47.4966,4.22135 47.4911,4.22997 L 42.3553,13.0764 37.2737,4.32407 c 1.2518,2.23553 1.3255,5.05366 -0.0541,7.42953 l -6.4833,11.1651 5.1374,8.8449 c 1.3411,2.3092 3.8102,3.7316 6.4824,3.7316 2.6722,0 5.1412,-1.4224 6.4824,-3.7316 l 5.1374,-8.8465 5.0793,8.7493 c -1.2495,-2.234 -1.3216,-5.0529 0.0572,-7.4272 L 65.5949,13.0749 60.4591,4.22841 C 60.4536,4.21978 60.4481,4.21194 60.4426,4.20175 Z M 48.1625,25.4718 c -4.1264,0 -7.4723,-3.3458 -7.4723,-7.4711 0,-4.1253 3.3451,-7.4711 7.4723,-7.4711 4.1271,0 7.473,3.3458 7.473,7.4711 0,4.1253 -3.3451,7.4711 -7.473,7.4711 z"
         fill="#d4bff6"
         fill-opacity="0.5" />
      <path
         id="Vector_2"
         d="m 19.1157,35.4984 c -2.6714,0 -5.1412,-1.4216 -6.4824,-3.7317 L 1.01431,11.7568 C -1.06415,8.17804 0.153903,3.59172 3.73356,1.5138 7.314,-0.56412 11.9007,0.653619 13.9792,4.23234 l 5.1365,8.84566 5.1366,-8.84566 c 2.0784,-3.578721 6.6652,-4.79646 10.2456,-2.71854 3.5805,2.07792 4.7977,6.66345 2.7193,10.243 l -11.619,20.0099 c -1.3412,2.3101 -3.8111,3.7317 -6.4825,3.7317 z"
         fill="#ffffff" />
      <path
         id="Vector_3"
         d="m 65.5846,35.4999 c -1.2777,0 -2.5718,-0.3269 -3.7561,-1.0138 -3.5805,-2.078 -4.7978,-6.6635 -2.7193,-10.243 L 70.7282,4.23313 c 2.0785,-3.579513 6.6652,-4.796468 10.2456,-2.71855 3.5805,2.07792 4.7977,6.66346 2.7193,10.24292 l -11.619,20.01 c -1.3906,2.3955 -3.9052,3.7324 -6.4895,3.7324 z"
         fill="#ffffff" />
      <path
         id="Vector_4"
         d="m 48.163,25.471 c 4.1272,0 7.473,-3.3449 7.473,-7.4711 0,-4.1262 -3.3458,-7.4711 -7.473,-7.4711 -4.1273,0 -7.4731,3.3449 -7.4731,7.4711 0,4.1262 3.3458,7.4711 7.4731,7.4711 z"
         fill="#ffffff" />
    </g>
  </g>
  <defs
     id="defs22">
    <clipPath
       id="clip0_14_293">
      <rect
         width="226"
         height="35"
         fill="#ffffff"
         transform="translate(0,0.5)"
         id="rect19"
         x="0"
         y="0" />
    </clipPath>
  </defs>
</svg>
