<?xml version="1.0" encoding="UTF-8"?>
<svg
  version="1.1"
  viewBox="0 0 1200 1200"
  xmlns="http://www.w3.org/2000/svg">
	<path
	      d="m 536.61507,1141.1353 c -37.21754,-10.5949 -69.3895,-29.398 -100.81938,-58.9248 -21.47593,-20.1754 -33.92045,-37.7406 -61.20002,-86.38275 -2.92843,-5.22166 -25.7988,-44.74008 -50.82306,-87.81871 C 298.74836,864.93041 261.52257,800.84649 241.04864,765.60034 220.57471,730.35418 175.85674,653.45349 141.67538,594.7099 -4.7903728,342.99598 -3.3797271,346.25484 1.4453487,270.75159 12.498805,97.786021 190.42018,-0.00594218 348.83213,79.815363 c 43.27308,21.804627 73.71026,57.872767 128.39406,152.147307 27.13328,46.77763 63.04509,108.54768 79.804,137.26677 16.75895,28.71909 32.17361,55.29359 34.25475,59.05442 7.77801,14.05549 13.84118,8.91625 37.35542,-31.66305 C 784.2523,128.07595 775.11294,142.66564 804.98164,115.11592 958.2396,-26.243104 1199.9551,78.430879 1199.9551,286.15769 c 0,61.48703 -6.418,79.65203 -61.2173,173.26394 -21.3967,36.55154 -56.8436,97.43126 -78.7705,135.28827 -21.927,37.85696 -49.9475,85.9199 -62.26777,106.80652 -12.32032,20.88659 -53.14155,91.37889 -90.71383,156.64957 -121.93411,211.82421 -127.42836,219.79741 -172.94006,250.96591 -55.98885,38.3438 -131.92063,50.6523 -197.43057,32.0034 z"
	    />
</svg>
